<mxfile host="app.diagrams.net" modified="2024-01-17T11:30:38.126Z" agent="Mozilla/5.0 (Windows NT 10.0; Win64; x64) AppleWebKit/537.36 (KHTML, like Gecko) Chrome/120.0.0.0 Safari/537.36 Edg/120.0.0.0" etag="TZiGlIJ7X3ajuQCV4IDs" version="22.1.20" type="device">
  <diagram name="Page-1" id="JTS-xjbD1oG3mHRZDveM">
    <mxGraphModel dx="2259" dy="667" grid="1" gridSize="10" guides="1" tooltips="1" connect="1" arrows="1" fold="1" page="1" pageScale="1" pageWidth="850" pageHeight="1100" math="0" shadow="0">
      <root>
        <mxCell id="0" />
        <mxCell id="1" parent="0" />
        <mxCell id="xgPvuu7gW4izGFz9EBY8-3" style="edgeStyle=orthogonalEdgeStyle;rounded=0;orthogonalLoop=1;jettySize=auto;html=1;exitX=0.5;exitY=1;exitDx=0;exitDy=0;entryX=0.5;entryY=0;entryDx=0;entryDy=0;" edge="1" parent="1" source="xgPvuu7gW4izGFz9EBY8-1" target="xgPvuu7gW4izGFz9EBY8-2">
          <mxGeometry relative="1" as="geometry" />
        </mxCell>
        <mxCell id="xgPvuu7gW4izGFz9EBY8-34" style="edgeStyle=orthogonalEdgeStyle;rounded=0;orthogonalLoop=1;jettySize=auto;html=1;exitX=0.5;exitY=1;exitDx=0;exitDy=0;" edge="1" parent="1" source="xgPvuu7gW4izGFz9EBY8-1" target="xgPvuu7gW4izGFz9EBY8-27">
          <mxGeometry relative="1" as="geometry" />
        </mxCell>
        <mxCell id="xgPvuu7gW4izGFz9EBY8-1" value="Start" style="ellipse;whiteSpace=wrap;html=1;" vertex="1" parent="1">
          <mxGeometry x="278" y="40" width="120" height="80" as="geometry" />
        </mxCell>
        <mxCell id="xgPvuu7gW4izGFz9EBY8-35" style="edgeStyle=orthogonalEdgeStyle;rounded=0;orthogonalLoop=1;jettySize=auto;html=1;exitX=0.5;exitY=1;exitDx=0;exitDy=0;entryX=0.5;entryY=0;entryDx=0;entryDy=0;" edge="1" parent="1" source="xgPvuu7gW4izGFz9EBY8-2" target="xgPvuu7gW4izGFz9EBY8-22">
          <mxGeometry relative="1" as="geometry" />
        </mxCell>
        <mxCell id="xgPvuu7gW4izGFz9EBY8-2" value="Button start, Remote start or resume, App start or resume, or Dust detected" style="rhombus;whiteSpace=wrap;html=1;" vertex="1" parent="1">
          <mxGeometry x="475" y="160" width="205" height="150" as="geometry" />
        </mxCell>
        <mxCell id="xgPvuu7gW4izGFz9EBY8-61" value="" style="edgeStyle=orthogonalEdgeStyle;rounded=0;orthogonalLoop=1;jettySize=auto;html=1;" edge="1" parent="1" source="xgPvuu7gW4izGFz9EBY8-6" target="xgPvuu7gW4izGFz9EBY8-8">
          <mxGeometry relative="1" as="geometry" />
        </mxCell>
        <mxCell id="xgPvuu7gW4izGFz9EBY8-6" value="Cleaning start&amp;nbsp;" style="shape=parallelogram;perimeter=parallelogramPerimeter;whiteSpace=wrap;html=1;fixedSize=1;" vertex="1" parent="1">
          <mxGeometry x="520" y="430" width="120" height="50" as="geometry" />
        </mxCell>
        <mxCell id="xgPvuu7gW4izGFz9EBY8-37" value="" style="edgeStyle=orthogonalEdgeStyle;rounded=0;orthogonalLoop=1;jettySize=auto;html=1;" edge="1" parent="1" source="xgPvuu7gW4izGFz9EBY8-7" target="xgPvuu7gW4izGFz9EBY8-9">
          <mxGeometry relative="1" as="geometry" />
        </mxCell>
        <mxCell id="xgPvuu7gW4izGFz9EBY8-7" value="Dry cleaning(Brush and motion 1 start and motion 2 reverse)" style="rounded=0;whiteSpace=wrap;html=1;" vertex="1" parent="1">
          <mxGeometry x="500" y="580" width="120" height="60" as="geometry" />
        </mxCell>
        <mxCell id="xgPvuu7gW4izGFz9EBY8-62" value="" style="edgeStyle=orthogonalEdgeStyle;rounded=0;orthogonalLoop=1;jettySize=auto;html=1;" edge="1" parent="1" source="xgPvuu7gW4izGFz9EBY8-8" target="xgPvuu7gW4izGFz9EBY8-7">
          <mxGeometry relative="1" as="geometry" />
        </mxCell>
        <mxCell id="xgPvuu7gW4izGFz9EBY8-8" value="Start light ON and others OFF" style="rounded=0;whiteSpace=wrap;html=1;" vertex="1" parent="1">
          <mxGeometry x="505" y="500" width="120" height="60" as="geometry" />
        </mxCell>
        <mxCell id="xgPvuu7gW4izGFz9EBY8-38" value="" style="edgeStyle=orthogonalEdgeStyle;rounded=0;orthogonalLoop=1;jettySize=auto;html=1;" edge="1" parent="1" source="xgPvuu7gW4izGFz9EBY8-9" target="xgPvuu7gW4izGFz9EBY8-12">
          <mxGeometry relative="1" as="geometry" />
        </mxCell>
        <mxCell id="xgPvuu7gW4izGFz9EBY8-9" value="Dry and start lights&lt;br&gt;&amp;nbsp;ON and others OFF" style="rounded=0;whiteSpace=wrap;html=1;" vertex="1" parent="1">
          <mxGeometry x="500" y="690" width="120" height="60" as="geometry" />
        </mxCell>
        <mxCell id="xgPvuu7gW4izGFz9EBY8-40" value="" style="edgeStyle=orthogonalEdgeStyle;rounded=0;orthogonalLoop=1;jettySize=auto;html=1;" edge="1" parent="1" source="xgPvuu7gW4izGFz9EBY8-11" target="xgPvuu7gW4izGFz9EBY8-13">
          <mxGeometry relative="1" as="geometry" />
        </mxCell>
        <mxCell id="xgPvuu7gW4izGFz9EBY8-11" value="Wet cleaning" style="shape=parallelogram;perimeter=parallelogramPerimeter;whiteSpace=wrap;html=1;fixedSize=1;" vertex="1" parent="1">
          <mxGeometry x="470" y="910" width="160" height="60" as="geometry" />
        </mxCell>
        <mxCell id="xgPvuu7gW4izGFz9EBY8-39" value="" style="edgeStyle=orthogonalEdgeStyle;rounded=0;orthogonalLoop=1;jettySize=auto;html=1;" edge="1" parent="1" source="xgPvuu7gW4izGFz9EBY8-12" target="xgPvuu7gW4izGFz9EBY8-11">
          <mxGeometry relative="1" as="geometry" />
        </mxCell>
        <mxCell id="xgPvuu7gW4izGFz9EBY8-59" style="edgeStyle=orthogonalEdgeStyle;rounded=0;orthogonalLoop=1;jettySize=auto;html=1;exitX=1;exitY=0.5;exitDx=0;exitDy=0;entryX=1;entryY=0.5;entryDx=0;entryDy=0;" edge="1" parent="1" source="xgPvuu7gW4izGFz9EBY8-12" target="xgPvuu7gW4izGFz9EBY8-7">
          <mxGeometry relative="1" as="geometry" />
        </mxCell>
        <mxCell id="xgPvuu7gW4izGFz9EBY8-12" value="IR (or ,and) proximity&amp;nbsp;" style="rhombus;whiteSpace=wrap;html=1;" vertex="1" parent="1">
          <mxGeometry x="505" y="780" width="110" height="110" as="geometry" />
        </mxCell>
        <mxCell id="xgPvuu7gW4izGFz9EBY8-41" value="" style="edgeStyle=orthogonalEdgeStyle;rounded=0;orthogonalLoop=1;jettySize=auto;html=1;" edge="1" parent="1" source="xgPvuu7gW4izGFz9EBY8-13" target="xgPvuu7gW4izGFz9EBY8-14">
          <mxGeometry relative="1" as="geometry" />
        </mxCell>
        <mxCell id="xgPvuu7gW4izGFz9EBY8-13" value="&#xa;&lt;span style=&quot;color: rgb(0, 0, 0); font-family: Helvetica; font-size: 12px; font-style: normal; font-variant-ligatures: normal; font-variant-caps: normal; font-weight: 400; letter-spacing: normal; orphans: 2; text-align: center; text-indent: 0px; text-transform: none; widows: 2; word-spacing: 0px; -webkit-text-stroke-width: 0px; background-color: rgb(251, 251, 251); text-decoration-thickness: initial; text-decoration-style: initial; text-decoration-color: initial; float: none; display: inline !important;&quot;&gt;Wet cleaning(motion 1 and brush reverse and motion 2 start)&lt;/span&gt;&#xa;&#xa;" style="rounded=0;whiteSpace=wrap;html=1;" vertex="1" parent="1">
          <mxGeometry x="480" y="1010" width="120" height="60" as="geometry" />
        </mxCell>
        <mxCell id="xgPvuu7gW4izGFz9EBY8-42" value="" style="edgeStyle=orthogonalEdgeStyle;rounded=0;orthogonalLoop=1;jettySize=auto;html=1;" edge="1" parent="1" source="xgPvuu7gW4izGFz9EBY8-14" target="xgPvuu7gW4izGFz9EBY8-15">
          <mxGeometry relative="1" as="geometry" />
        </mxCell>
        <mxCell id="xgPvuu7gW4izGFz9EBY8-14" value="Wet and start lights ON, and others OFF" style="rounded=0;whiteSpace=wrap;html=1;" vertex="1" parent="1">
          <mxGeometry x="470" y="1120" width="120" height="60" as="geometry" />
        </mxCell>
        <mxCell id="xgPvuu7gW4izGFz9EBY8-43" value="" style="edgeStyle=orthogonalEdgeStyle;rounded=0;orthogonalLoop=1;jettySize=auto;html=1;" edge="1" parent="1" source="xgPvuu7gW4izGFz9EBY8-15" target="xgPvuu7gW4izGFz9EBY8-16">
          <mxGeometry relative="1" as="geometry" />
        </mxCell>
        <mxCell id="xgPvuu7gW4izGFz9EBY8-15" value="Pump ON" style="rounded=0;whiteSpace=wrap;html=1;" vertex="1" parent="1">
          <mxGeometry x="470" y="1220" width="120" height="60" as="geometry" />
        </mxCell>
        <mxCell id="xgPvuu7gW4izGFz9EBY8-44" value="" style="edgeStyle=orthogonalEdgeStyle;rounded=0;orthogonalLoop=1;jettySize=auto;html=1;" edge="1" parent="1" source="xgPvuu7gW4izGFz9EBY8-16" target="xgPvuu7gW4izGFz9EBY8-17">
          <mxGeometry relative="1" as="geometry" />
        </mxCell>
        <mxCell id="xgPvuu7gW4izGFz9EBY8-63" style="edgeStyle=orthogonalEdgeStyle;rounded=0;orthogonalLoop=1;jettySize=auto;html=1;exitX=1;exitY=0.5;exitDx=0;exitDy=0;entryX=1;entryY=0.5;entryDx=0;entryDy=0;" edge="1" parent="1" source="xgPvuu7gW4izGFz9EBY8-16" target="xgPvuu7gW4izGFz9EBY8-13">
          <mxGeometry relative="1" as="geometry" />
        </mxCell>
        <mxCell id="xgPvuu7gW4izGFz9EBY8-16" value="IR (or ,and) proximity&amp;nbsp;" style="rhombus;whiteSpace=wrap;html=1;" vertex="1" parent="1">
          <mxGeometry x="480" y="1310" width="110" height="110" as="geometry" />
        </mxCell>
        <mxCell id="xgPvuu7gW4izGFz9EBY8-45" value="" style="edgeStyle=orthogonalEdgeStyle;rounded=0;orthogonalLoop=1;jettySize=auto;html=1;" edge="1" parent="1" source="xgPvuu7gW4izGFz9EBY8-17" target="xgPvuu7gW4izGFz9EBY8-18">
          <mxGeometry relative="1" as="geometry" />
        </mxCell>
        <mxCell id="xgPvuu7gW4izGFz9EBY8-17" value="Stop cleaning" style="shape=parallelogram;perimeter=parallelogramPerimeter;whiteSpace=wrap;html=1;fixedSize=1;" vertex="1" parent="1">
          <mxGeometry x="470" y="1460" width="120" height="60" as="geometry" />
        </mxCell>
        <mxCell id="xgPvuu7gW4izGFz9EBY8-46" value="" style="edgeStyle=orthogonalEdgeStyle;rounded=0;orthogonalLoop=1;jettySize=auto;html=1;" edge="1" parent="1" source="xgPvuu7gW4izGFz9EBY8-18" target="xgPvuu7gW4izGFz9EBY8-19">
          <mxGeometry relative="1" as="geometry" />
        </mxCell>
        <mxCell id="xgPvuu7gW4izGFz9EBY8-18" value="Motors stop and pump stop&amp;nbsp;" style="rounded=0;whiteSpace=wrap;html=1;" vertex="1" parent="1">
          <mxGeometry x="470" y="1550" width="120" height="60" as="geometry" />
        </mxCell>
        <mxCell id="xgPvuu7gW4izGFz9EBY8-47" value="" style="edgeStyle=orthogonalEdgeStyle;rounded=0;orthogonalLoop=1;jettySize=auto;html=1;" edge="1" parent="1" source="xgPvuu7gW4izGFz9EBY8-19" target="xgPvuu7gW4izGFz9EBY8-20">
          <mxGeometry relative="1" as="geometry" />
        </mxCell>
        <mxCell id="xgPvuu7gW4izGFz9EBY8-19" value="Stop light ON and others OFF" style="rounded=0;whiteSpace=wrap;html=1;" vertex="1" parent="1">
          <mxGeometry x="470" y="1650" width="120" height="60" as="geometry" />
        </mxCell>
        <mxCell id="xgPvuu7gW4izGFz9EBY8-20" value="End" style="ellipse;whiteSpace=wrap;html=1;" vertex="1" parent="1">
          <mxGeometry x="480" y="1760" width="120" height="80" as="geometry" />
        </mxCell>
        <mxCell id="xgPvuu7gW4izGFz9EBY8-23" style="edgeStyle=orthogonalEdgeStyle;rounded=0;orthogonalLoop=1;jettySize=auto;html=1;" edge="1" parent="1" source="xgPvuu7gW4izGFz9EBY8-22" target="xgPvuu7gW4izGFz9EBY8-6">
          <mxGeometry relative="1" as="geometry" />
        </mxCell>
        <mxCell id="xgPvuu7gW4izGFz9EBY8-29" style="edgeStyle=orthogonalEdgeStyle;rounded=0;orthogonalLoop=1;jettySize=auto;html=1;exitX=0;exitY=0.5;exitDx=0;exitDy=0;entryX=0.5;entryY=0;entryDx=0;entryDy=0;" edge="1" parent="1" source="xgPvuu7gW4izGFz9EBY8-22" target="xgPvuu7gW4izGFz9EBY8-24">
          <mxGeometry relative="1" as="geometry" />
        </mxCell>
        <mxCell id="xgPvuu7gW4izGFz9EBY8-22" value="IR (or and) proximity&amp;nbsp;" style="rhombus;whiteSpace=wrap;html=1;" vertex="1" parent="1">
          <mxGeometry x="340" y="310" width="110" height="110" as="geometry" />
        </mxCell>
        <mxCell id="xgPvuu7gW4izGFz9EBY8-31" style="edgeStyle=orthogonalEdgeStyle;rounded=0;orthogonalLoop=1;jettySize=auto;html=1;exitX=0.5;exitY=1;exitDx=0;exitDy=0;" edge="1" parent="1" source="xgPvuu7gW4izGFz9EBY8-24" target="xgPvuu7gW4izGFz9EBY8-30">
          <mxGeometry relative="1" as="geometry" />
        </mxCell>
        <mxCell id="xgPvuu7gW4izGFz9EBY8-24" value="Repositioning&amp;nbsp;" style="shape=parallelogram;perimeter=parallelogramPerimeter;whiteSpace=wrap;html=1;fixedSize=1;" vertex="1" parent="1">
          <mxGeometry x="160" y="410" width="120" height="60" as="geometry" />
        </mxCell>
        <mxCell id="xgPvuu7gW4izGFz9EBY8-25" value="Detecting lift position&amp;nbsp;" style="text;html=1;align=center;verticalAlign=middle;resizable=0;points=[];autosize=1;strokeColor=none;fillColor=none;" vertex="1" parent="1">
          <mxGeometry x="430" y="340" width="140" height="30" as="geometry" />
        </mxCell>
        <mxCell id="xgPvuu7gW4izGFz9EBY8-26" value="Detecting center or right position&amp;nbsp;" style="text;html=1;align=center;verticalAlign=middle;resizable=0;points=[];autosize=1;strokeColor=none;fillColor=none;" vertex="1" parent="1">
          <mxGeometry x="130" y="330" width="200" height="30" as="geometry" />
        </mxCell>
        <mxCell id="xgPvuu7gW4izGFz9EBY8-53" value="" style="edgeStyle=orthogonalEdgeStyle;rounded=0;orthogonalLoop=1;jettySize=auto;html=1;" edge="1" parent="1" source="xgPvuu7gW4izGFz9EBY8-27" target="xgPvuu7gW4izGFz9EBY8-49">
          <mxGeometry relative="1" as="geometry" />
        </mxCell>
        <mxCell id="xgPvuu7gW4izGFz9EBY8-27" value="&lt;br&gt;&lt;span style=&quot;color: rgb(0, 0, 0); font-family: Helvetica; font-size: 12px; font-style: normal; font-variant-ligatures: normal; font-variant-caps: normal; font-weight: 400; letter-spacing: normal; orphans: 2; text-align: center; text-indent: 0px; text-transform: none; widows: 2; word-spacing: 0px; -webkit-text-stroke-width: 0px; background-color: rgb(251, 251, 251); text-decoration-thickness: initial; text-decoration-style: initial; text-decoration-color: initial; float: none; display: inline !important;&quot;&gt;Button stop, Remote stop, or App stop&lt;/span&gt;&lt;br&gt;" style="rhombus;whiteSpace=wrap;html=1;" vertex="1" parent="1">
          <mxGeometry x="-70" y="160" width="125" height="110" as="geometry" />
        </mxCell>
        <mxCell id="xgPvuu7gW4izGFz9EBY8-67" style="edgeStyle=orthogonalEdgeStyle;rounded=0;orthogonalLoop=1;jettySize=auto;html=1;exitX=0.5;exitY=1;exitDx=0;exitDy=0;" edge="1" parent="1" source="xgPvuu7gW4izGFz9EBY8-30" target="xgPvuu7gW4izGFz9EBY8-65">
          <mxGeometry relative="1" as="geometry" />
        </mxCell>
        <mxCell id="xgPvuu7gW4izGFz9EBY8-30" value="Motion 1 reverse and motion 2 start" style="rounded=0;whiteSpace=wrap;html=1;" vertex="1" parent="1">
          <mxGeometry x="158" y="520" width="120" height="60" as="geometry" />
        </mxCell>
        <mxCell id="xgPvuu7gW4izGFz9EBY8-33" style="edgeStyle=orthogonalEdgeStyle;rounded=0;orthogonalLoop=1;jettySize=auto;html=1;exitX=0.5;exitY=1;exitDx=0;exitDy=0;entryX=0.442;entryY=1.006;entryDx=0;entryDy=0;entryPerimeter=0;" edge="1" parent="1" source="xgPvuu7gW4izGFz9EBY8-65" target="xgPvuu7gW4izGFz9EBY8-22">
          <mxGeometry relative="1" as="geometry" />
        </mxCell>
        <mxCell id="xgPvuu7gW4izGFz9EBY8-48" value="" style="edgeStyle=orthogonalEdgeStyle;rounded=0;orthogonalLoop=1;jettySize=auto;html=1;" edge="1" parent="1" source="xgPvuu7gW4izGFz9EBY8-49" target="xgPvuu7gW4izGFz9EBY8-51">
          <mxGeometry relative="1" as="geometry" />
        </mxCell>
        <mxCell id="xgPvuu7gW4izGFz9EBY8-49" value="Stop cleaning" style="shape=parallelogram;perimeter=parallelogramPerimeter;whiteSpace=wrap;html=1;fixedSize=1;" vertex="1" parent="1">
          <mxGeometry x="-65" y="330" width="120" height="60" as="geometry" />
        </mxCell>
        <mxCell id="xgPvuu7gW4izGFz9EBY8-50" value="" style="edgeStyle=orthogonalEdgeStyle;rounded=0;orthogonalLoop=1;jettySize=auto;html=1;" edge="1" parent="1" source="xgPvuu7gW4izGFz9EBY8-51" target="xgPvuu7gW4izGFz9EBY8-52">
          <mxGeometry relative="1" as="geometry" />
        </mxCell>
        <mxCell id="xgPvuu7gW4izGFz9EBY8-51" value="Motors stop and pump stop&amp;nbsp;" style="rounded=0;whiteSpace=wrap;html=1;" vertex="1" parent="1">
          <mxGeometry x="-65" y="420" width="120" height="60" as="geometry" />
        </mxCell>
        <mxCell id="xgPvuu7gW4izGFz9EBY8-54" style="edgeStyle=orthogonalEdgeStyle;rounded=0;orthogonalLoop=1;jettySize=auto;html=1;entryX=0;entryY=0.5;entryDx=0;entryDy=0;" edge="1" parent="1" source="xgPvuu7gW4izGFz9EBY8-52" target="xgPvuu7gW4izGFz9EBY8-20">
          <mxGeometry relative="1" as="geometry">
            <Array as="points">
              <mxPoint x="-5" y="790" />
              <mxPoint x="268" y="790" />
              <mxPoint x="268" y="1800" />
            </Array>
          </mxGeometry>
        </mxCell>
        <mxCell id="xgPvuu7gW4izGFz9EBY8-52" value="Stop light ON and others OFF" style="rounded=0;whiteSpace=wrap;html=1;" vertex="1" parent="1">
          <mxGeometry x="-65" y="520" width="120" height="60" as="geometry" />
        </mxCell>
        <mxCell id="xgPvuu7gW4izGFz9EBY8-55" value="yes" style="text;html=1;align=center;verticalAlign=middle;resizable=0;points=[];autosize=1;strokeColor=none;fillColor=none;" vertex="1" parent="1">
          <mxGeometry x="520" y="298" width="40" height="30" as="geometry" />
        </mxCell>
        <mxCell id="xgPvuu7gW4izGFz9EBY8-56" value="yes" style="text;html=1;align=center;verticalAlign=middle;resizable=0;points=[];autosize=1;strokeColor=none;fillColor=none;" vertex="1" parent="1">
          <mxGeometry x="20" y="268" width="40" height="30" as="geometry" />
        </mxCell>
        <mxCell id="xgPvuu7gW4izGFz9EBY8-57" value="yes" style="text;html=1;align=center;verticalAlign=middle;resizable=0;points=[];autosize=1;strokeColor=none;fillColor=none;" vertex="1" parent="1">
          <mxGeometry x="560" y="880" width="40" height="30" as="geometry" />
        </mxCell>
        <mxCell id="xgPvuu7gW4izGFz9EBY8-58" value="yes" style="text;html=1;align=center;verticalAlign=middle;resizable=0;points=[];autosize=1;strokeColor=none;fillColor=none;" vertex="1" parent="1">
          <mxGeometry x="550" y="1408" width="40" height="30" as="geometry" />
        </mxCell>
        <mxCell id="xgPvuu7gW4izGFz9EBY8-60" value="no" style="text;html=1;align=center;verticalAlign=middle;resizable=0;points=[];autosize=1;strokeColor=none;fillColor=none;" vertex="1" parent="1">
          <mxGeometry x="600" y="808" width="40" height="30" as="geometry" />
        </mxCell>
        <mxCell id="xgPvuu7gW4izGFz9EBY8-64" value="no" style="text;html=1;align=center;verticalAlign=middle;resizable=0;points=[];autosize=1;strokeColor=none;fillColor=none;" vertex="1" parent="1">
          <mxGeometry x="590" y="1328" width="40" height="30" as="geometry" />
        </mxCell>
        <mxCell id="xgPvuu7gW4izGFz9EBY8-65" value="Start light ON and others OFF" style="rounded=0;whiteSpace=wrap;html=1;" vertex="1" parent="1">
          <mxGeometry x="158" y="650" width="120" height="60" as="geometry" />
        </mxCell>
        <mxCell id="xgPvuu7gW4izGFz9EBY8-68" value="Lift: motor 1reverse and motor 2 start" style="text;html=1;align=center;verticalAlign=middle;resizable=0;points=[];autosize=1;strokeColor=none;fillColor=none;" vertex="1" parent="1">
          <mxGeometry x="580" y="50" width="220" height="30" as="geometry" />
        </mxCell>
        <mxCell id="xgPvuu7gW4izGFz9EBY8-69" value="right: motor1 start and motor 2 revers" style="text;html=1;align=center;verticalAlign=middle;resizable=0;points=[];autosize=1;strokeColor=none;fillColor=none;" vertex="1" parent="1">
          <mxGeometry x="580" y="80" width="220" height="30" as="geometry" />
        </mxCell>
      </root>
    </mxGraphModel>
  </diagram>
</mxfile>
